<mxfile host="Electron" modified="2024-09-13T12:19:18.145Z" agent="Mozilla/5.0 (Windows NT 10.0; Win64; x64) AppleWebKit/537.36 (KHTML, like Gecko) draw.io/22.1.21 Chrome/120.0.6099.109 Electron/28.1.0 Safari/537.36" etag="wbu02p6LU3kDPI80B7WA" version="22.1.21" type="device">
  <diagram name="Page-1" id="G6_kHFTdqo6W1-mvhtnD">
    <mxGraphModel dx="794" dy="519" grid="1" gridSize="10" guides="1" tooltips="1" connect="1" arrows="1" fold="1" page="1" pageScale="1" pageWidth="1169" pageHeight="1654" math="0" shadow="0">
      <root>
        <mxCell id="0" />
        <mxCell id="1" parent="0" />
        <mxCell id="805k37WOqUcrQKm4Pakm-4" value="" style="rounded=1;whiteSpace=wrap;html=1;" parent="1" vertex="1">
          <mxGeometry x="120" y="70" width="160" height="140" as="geometry" />
        </mxCell>
        <mxCell id="805k37WOqUcrQKm4Pakm-7" value="" style="rounded=1;whiteSpace=wrap;html=1;" parent="1" vertex="1">
          <mxGeometry x="305" y="70" width="240" height="140" as="geometry" />
        </mxCell>
        <mxCell id="805k37WOqUcrQKm4Pakm-10" value="" style="rounded=1;whiteSpace=wrap;html=1;" parent="1" vertex="1">
          <mxGeometry x="570" y="70" width="240" height="140" as="geometry" />
        </mxCell>
        <mxCell id="805k37WOqUcrQKm4Pakm-13" value="" style="rounded=1;whiteSpace=wrap;html=1;strokeWidth=0;strokeColor=#666666;fillColor=#f5f5f5;fontColor=#333333;" parent="1" vertex="1">
          <mxGeometry x="40" y="250" width="880" height="640" as="geometry" />
        </mxCell>
        <mxCell id="805k37WOqUcrQKm4Pakm-18" value="Influx DB" style="shape=datastore;whiteSpace=wrap;html=1;fillColor=#d5e8d4;strokeColor=#82b366;" parent="1" vertex="1">
          <mxGeometry x="390" y="590" width="100" height="130" as="geometry" />
        </mxCell>
        <mxCell id="805k37WOqUcrQKm4Pakm-19" value="MICROPHONE" style="text;html=1;strokeColor=#d6b656;fillColor=#fff2cc;align=center;verticalAlign=middle;whiteSpace=wrap;rounded=0;" parent="1" vertex="1">
          <mxGeometry x="350" y="80" width="140" height="30" as="geometry" />
        </mxCell>
        <mxCell id="805k37WOqUcrQKm4Pakm-20" value="Detecting sound or voice" style="text;html=1;strokeColor=none;fillColor=none;align=center;verticalAlign=middle;whiteSpace=wrap;rounded=0;" parent="1" vertex="1">
          <mxGeometry x="350" y="125" width="150" height="30" as="geometry" />
        </mxCell>
        <mxCell id="805k37WOqUcrQKm4Pakm-21" value="&lt;ul style=&quot;border-color: var(--border-color); text-align: left;&quot;&gt;&lt;li style=&quot;border-color: var(--border-color);&quot;&gt;Stattionary&lt;/li&gt;&lt;li style=&quot;border-color: var(--border-color);&quot;&gt;&lt;span style=&quot;border-color: var(--border-color); background-color: initial;&quot;&gt;Walking&lt;/span&gt;&lt;/li&gt;&lt;li style=&quot;border-color: var(--border-color);&quot;&gt;&lt;span style=&quot;border-color: var(--border-color); background-color: initial;&quot;&gt;Jogging&lt;/span&gt;&lt;/li&gt;&lt;li style=&quot;border-color: var(--border-color);&quot;&gt;&lt;span style=&quot;border-color: var(--border-color); background-color: initial;&quot;&gt;Biking&lt;/span&gt;&lt;/li&gt;&lt;/ul&gt;" style="text;html=1;strokeColor=none;fillColor=none;align=center;verticalAlign=middle;whiteSpace=wrap;rounded=0;" parent="1" vertex="1">
          <mxGeometry x="140" y="120" width="110" height="60" as="geometry" />
        </mxCell>
        <mxCell id="805k37WOqUcrQKm4Pakm-22" value="IMU" style="text;html=1;strokeColor=#d6b656;fillColor=#fff2cc;align=center;verticalAlign=middle;whiteSpace=wrap;rounded=0;" parent="1" vertex="1">
          <mxGeometry x="140" y="80" width="110" height="30" as="geometry" />
        </mxCell>
        <mxCell id="805k37WOqUcrQKm4Pakm-23" value="TEMPERATURE SENSOR" style="text;html=1;strokeColor=#d6b656;fillColor=#fff2cc;align=center;verticalAlign=middle;whiteSpace=wrap;rounded=0;" parent="1" vertex="1">
          <mxGeometry x="600" y="80" width="180" height="30" as="geometry" />
        </mxCell>
        <mxCell id="805k37WOqUcrQKm4Pakm-25" value="Offering internet access" style="text;html=1;strokeColor=none;fillColor=none;align=center;verticalAlign=middle;whiteSpace=wrap;rounded=0;" parent="1" vertex="1">
          <mxGeometry x="770" y="368" width="140" height="30" as="geometry" />
        </mxCell>
        <mxCell id="805k37WOqUcrQKm4Pakm-27" value="" style="sketch=0;outlineConnect=0;fontColor=#232F3E;gradientColor=none;fillColor=#7AA116;strokeColor=none;dashed=0;verticalLabelPosition=bottom;verticalAlign=top;align=center;html=1;fontSize=12;fontStyle=0;aspect=fixed;pointerEvents=1;shape=mxgraph.aws4.iot_thing_plc;" parent="1" vertex="1">
          <mxGeometry x="401" y="290" width="78" height="78" as="geometry" />
        </mxCell>
        <mxCell id="805k37WOqUcrQKm4Pakm-30" value="" style="endArrow=classic;startArrow=classic;html=1;rounded=0;" parent="1" edge="1">
          <mxGeometry width="50" height="50" relative="1" as="geometry">
            <mxPoint x="390" y="330" as="sourcePoint" />
            <mxPoint x="200" y="220" as="targetPoint" />
            <Array as="points">
              <mxPoint x="200" y="330" />
            </Array>
          </mxGeometry>
        </mxCell>
        <mxCell id="805k37WOqUcrQKm4Pakm-31" value="" style="endArrow=classic;startArrow=classic;html=1;rounded=0;" parent="1" edge="1">
          <mxGeometry width="50" height="50" relative="1" as="geometry">
            <mxPoint x="490" y="330" as="sourcePoint" />
            <mxPoint x="690" y="220" as="targetPoint" />
            <Array as="points">
              <mxPoint x="690" y="330" />
            </Array>
          </mxGeometry>
        </mxCell>
        <mxCell id="805k37WOqUcrQKm4Pakm-32" value="" style="endArrow=classic;startArrow=classic;html=1;rounded=0;" parent="1" edge="1">
          <mxGeometry width="50" height="50" relative="1" as="geometry">
            <mxPoint x="440" y="280" as="sourcePoint" />
            <mxPoint x="440" y="220" as="targetPoint" />
          </mxGeometry>
        </mxCell>
        <mxCell id="805k37WOqUcrQKm4Pakm-34" value="WIFI" style="text;html=1;strokeColor=none;fillColor=none;align=center;verticalAlign=middle;whiteSpace=wrap;rounded=0;" parent="1" vertex="1">
          <mxGeometry x="840" y="329" width="60" height="30" as="geometry" />
        </mxCell>
        <mxCell id="805k37WOqUcrQKm4Pakm-35" value="" style="endArrow=classic;startArrow=classic;html=1;rounded=0;" parent="1" source="805k37WOqUcrQKm4Pakm-36" edge="1">
          <mxGeometry width="50" height="50" relative="1" as="geometry">
            <mxPoint x="440" y="570" as="sourcePoint" />
            <mxPoint x="440" y="380" as="targetPoint" />
          </mxGeometry>
        </mxCell>
        <mxCell id="805k37WOqUcrQKm4Pakm-37" value="" style="endArrow=classic;startArrow=classic;html=1;rounded=0;" parent="1" target="805k37WOqUcrQKm4Pakm-36" edge="1">
          <mxGeometry width="50" height="50" relative="1" as="geometry">
            <mxPoint x="440" y="570" as="sourcePoint" />
            <mxPoint x="440" y="380" as="targetPoint" />
          </mxGeometry>
        </mxCell>
        <mxCell id="805k37WOqUcrQKm4Pakm-36" value="MQTT" style="text;html=1;strokeColor=none;fillColor=none;align=center;verticalAlign=middle;whiteSpace=wrap;rounded=0;" parent="1" vertex="1">
          <mxGeometry x="410" y="460" width="60" height="30" as="geometry" />
        </mxCell>
      </root>
    </mxGraphModel>
  </diagram>
</mxfile>
